<svg width="767" height="167" viewBox="0 0 767 167" fill="none" xmlns="http://www.w3.org/2000/svg">
<rect x="49" y="24" width="124" height="126" rx="14" fill="black"/>
<path d="M161 84.5C119.4 147.7 77 110.833 61 84.5L110.5 54L161 84.5Z" fill="white"/>
<circle cx="96" cy="88.5" r="5" fill="black"/>
<circle cx="127" cy="88.5" r="5" fill="black"/>
<path d="M203.632 127L185.072 63.512H195.824L209.264 113.304L224.112 63.512H236.272L251.248 113.304L264.56 63.512H275.44L256.88 127H245.872L230.256 74.648L214.64 127H203.632ZM282.34 49.432C280.207 49.432 278.415 48.7493 276.964 47.384C275.599 45.9333 274.916 44.1413 274.916 42.008C274.916 39.96 275.599 38.2533 276.964 36.888C278.415 35.5227 280.207 34.84 282.34 34.84C284.388 34.84 286.137 35.5227 287.588 36.888C289.039 38.2533 289.764 39.96 289.764 42.008C289.764 44.1413 289.039 45.9333 287.588 47.384C286.137 48.7493 284.388 49.432 282.34 49.432ZM276.964 127V63.512H287.716V127H276.964ZM319.237 128.536C311.642 128.536 305.328 126.616 300.293 122.776C295.258 118.936 292.314 113.731 291.461 107.16H302.469C303.152 110.488 304.901 113.389 307.717 115.864C310.618 118.253 314.501 119.448 319.365 119.448C323.888 119.448 327.216 118.509 329.349 116.632C331.482 114.669 332.549 112.365 332.549 109.72C332.549 105.88 331.141 103.32 328.325 102.04C325.594 100.76 321.712 99.608 316.677 98.584C313.264 97.9013 309.85 96.92 306.437 95.64C303.024 94.36 300.165 92.568 297.861 90.264C295.557 87.8747 294.405 84.76 294.405 80.92C294.405 75.3733 296.453 70.8507 300.549 67.352C304.73 63.768 310.362 61.976 317.445 61.976C324.186 61.976 329.69 63.6827 333.957 67.096C338.309 70.424 340.826 75.2027 341.509 81.432H330.885C330.458 78.1893 329.05 75.672 326.661 73.88C324.357 72.0027 321.242 71.064 317.317 71.064C313.477 71.064 310.49 71.8747 308.357 73.496C306.309 75.1173 305.285 77.2507 305.285 79.896C305.285 82.456 306.608 84.4613 309.253 85.912C311.984 87.3627 315.653 88.6 320.261 89.624C324.186 90.4773 327.898 91.544 331.397 92.824C334.981 94.0187 337.882 95.8533 340.101 98.328C342.405 100.717 343.557 104.216 343.557 108.824C343.642 114.541 341.466 119.277 337.029 123.032C332.677 126.701 326.746 128.536 319.237 128.536ZM375.941 128.536C369.882 128.536 364.506 127.171 359.813 124.44C355.12 121.624 351.408 117.741 348.677 112.792C346.032 107.843 344.709 101.997 344.709 95.256C344.709 88.6 346.032 82.7973 348.677 77.848C351.322 72.8133 354.992 68.9307 359.685 66.2C364.464 63.384 369.968 61.976 376.197 61.976C382.341 61.976 387.632 63.384 392.069 66.2C396.592 68.9307 400.048 72.5573 402.437 77.08C404.826 81.6027 406.021 86.4667 406.021 91.672C406.021 92.6107 405.978 93.5493 405.893 94.488C405.893 95.4267 405.893 96.4933 405.893 97.688H355.333C355.589 102.552 356.698 106.605 358.661 109.848C360.709 113.005 363.226 115.395 366.213 117.016C369.285 118.637 372.528 119.448 375.941 119.448C380.378 119.448 384.09 118.424 387.077 116.376C390.064 114.328 392.24 111.555 393.605 108.056H404.229C402.522 113.944 399.237 118.851 394.373 122.776C389.594 126.616 383.45 128.536 375.941 128.536ZM375.941 71.064C370.821 71.064 366.256 72.6427 362.245 75.8C358.32 78.872 356.058 83.3947 355.461 89.368H395.397C395.141 83.6507 393.178 79.1707 389.509 75.928C385.84 72.6853 381.317 71.064 375.941 71.064ZM408.752 127V63.512H418.48L419.248 72.728C421.296 69.3147 424.027 66.6693 427.44 64.792C430.853 62.9147 434.693 61.976 438.96 61.976C443.995 61.976 448.304 63 451.888 65.048C455.557 67.096 458.373 70.2107 460.336 74.392C462.555 70.552 465.584 67.5227 469.424 65.304C473.349 63.0853 477.573 61.976 482.096 61.976C489.691 61.976 495.749 64.28 500.272 68.888C504.795 73.4107 507.056 80.408 507.056 89.88V127H496.432V91.032C496.432 84.4613 495.109 79.512 492.464 76.184C489.819 72.856 486.021 71.192 481.072 71.192C475.952 71.192 471.685 73.1973 468.272 77.208C464.944 81.1333 463.28 86.7653 463.28 94.104V127H452.528V91.032C452.528 84.4613 451.205 79.512 448.56 76.184C445.915 72.856 442.117 71.192 437.168 71.192C432.133 71.192 427.909 73.1973 424.496 77.208C421.168 81.1333 419.504 86.7653 419.504 94.104V127H408.752ZM540.276 128.536C534.217 128.536 528.841 127.171 524.148 124.44C519.455 121.624 515.743 117.741 513.012 112.792C510.367 107.843 509.044 101.997 509.044 95.256C509.044 88.6 510.367 82.7973 513.012 77.848C515.657 72.8133 519.327 68.9307 524.02 66.2C528.799 63.384 534.303 61.976 540.532 61.976C546.676 61.976 551.967 63.384 556.404 66.2C560.927 68.9307 564.383 72.5573 566.772 77.08C569.161 81.6027 570.356 86.4667 570.356 91.672C570.356 92.6107 570.313 93.5493 570.228 94.488C570.228 95.4267 570.228 96.4933 570.228 97.688H519.668C519.924 102.552 521.033 106.605 522.996 109.848C525.044 113.005 527.561 115.395 530.548 117.016C533.62 118.637 536.863 119.448 540.276 119.448C544.713 119.448 548.425 118.424 551.412 116.376C554.399 114.328 556.575 111.555 557.94 108.056H568.564C566.857 113.944 563.572 118.851 558.708 122.776C553.929 126.616 547.785 128.536 540.276 128.536ZM540.276 71.064C535.156 71.064 530.591 72.6427 526.58 75.8C522.655 78.872 520.393 83.3947 519.796 89.368H559.732C559.476 83.6507 557.513 79.1707 553.844 75.928C550.175 72.6853 545.652 71.064 540.276 71.064ZM573.087 127V34.84H583.839V127H573.087ZM618.87 128.536C612.897 128.536 607.521 127.171 602.742 124.44C597.963 121.709 594.166 117.869 591.35 112.92C588.619 107.885 587.254 101.997 587.254 95.256C587.254 88.5147 588.662 82.6693 591.478 77.72C594.294 72.6853 598.091 68.8027 602.87 66.072C607.734 63.3413 613.153 61.976 619.126 61.976C625.099 61.976 630.475 63.3413 635.254 66.072C640.033 68.8027 643.787 72.6853 646.518 77.72C649.334 82.6693 650.742 88.5147 650.742 95.256C650.742 101.997 649.334 107.885 646.518 112.92C643.702 117.869 639.862 121.709 634.998 124.44C630.219 127.171 624.843 128.536 618.87 128.536ZM618.87 119.32C622.539 119.32 625.953 118.424 629.11 116.632C632.267 114.84 634.827 112.152 636.79 108.568C638.753 104.984 639.734 100.547 639.734 95.256C639.734 89.9653 638.753 85.528 636.79 81.944C634.913 78.36 632.395 75.672 629.238 73.88C626.081 72.088 622.71 71.192 619.126 71.192C615.457 71.192 612.043 72.088 608.886 73.88C605.729 75.672 603.169 78.36 601.206 81.944C599.243 85.528 598.262 89.9653 598.262 95.256C598.262 100.547 599.243 104.984 601.206 108.568C603.169 112.152 605.686 114.84 608.758 116.632C611.915 118.424 615.286 119.32 618.87 119.32ZM654.172 127V63.512H663.9L664.54 74.904C666.588 70.8933 669.532 67.736 673.372 65.432C677.212 63.128 681.564 61.976 686.428 61.976C693.937 61.976 699.911 64.28 704.348 68.888C708.871 73.4107 711.132 80.408 711.132 89.88V127H700.38V91.032C700.38 77.8053 694.919 71.192 683.996 71.192C678.535 71.192 673.969 73.1973 670.3 77.208C666.716 81.1333 664.924 86.7653 664.924 94.104V127H654.172Z" fill="black"/>
</svg>
